<svg xmlns="http://www.w3.org/2000/svg" width="1600" height="3300" viewBox="0 0 1600 3300">
  <defs>
    <style>
      .bg { fill: #f7f4ec; }
      .board { fill: #fffdf7; stroke: #ded6c7; stroke-width: 2; rx: 8; }
      .panel { fill: #f7f4ec; stroke: #ded6c7; stroke-width: 1.5; rx: 8; }
      .muted { fill: #efe7d7; rx: 8; }
      .line { stroke: #ded6c7; stroke-width: 1.5; }
      .ink { fill: #1f2a24; font-family: "Microsoft YaHei", "PingFang SC", sans-serif; }
      .text { fill: #445047; font-family: "Microsoft YaHei", "PingFang SC", sans-serif; }
      .sub { fill: #66736a; font-family: "Microsoft YaHei", "PingFang SC", sans-serif; }
      .white { fill: #fffdf7; font-family: "Microsoft YaHei", "PingFang SC", sans-serif; }
      .green { fill: #2f6f4e; }
      .green-soft { fill: #dbe8d4; }
      .tomato { fill: #d85b3a; }
      .blue { fill: #376c8a; }
      .oat { fill: #eadfca; }
      .chip { fill: #dbe8d4; stroke: #b6cfaa; stroke-width: 1; rx: 8; }
      .chip-warm { fill: #f4ddce; stroke: #e1aa93; stroke-width: 1; rx: 8; }
      .chip-blue { fill: #d9e8ed; stroke: #a9c8d4; stroke-width: 1; rx: 8; }
      .shadow { filter: drop-shadow(0 12px 28px rgba(31, 42, 36, 0.10)); }
      .title { font-size: 30px; font-weight: 700; }
      .h2 { font-size: 22px; font-weight: 700; }
      .h3 { font-size: 17px; font-weight: 700; }
      .body { font-size: 14px; }
      .small { font-size: 12px; }
      .tiny { font-size: 10px; }
      .num { font-size: 26px; font-weight: 700; }
    </style>
  </defs>

  <rect class="bg" width="1600" height="3300"/>
  <text x="80" y="78" class="ink title">膳哉前端界面设计总览</text>
  <text x="80" y="110" class="sub body">健康饮食产品感 + 高效数据维护端。所有页面基于 Vue 3 + Naive UI，可先用 mock 数据实现。</text>

  <!-- 01 Login -->
  <g transform="translate(80,150)">
    <rect class="board shadow" width="700" height="430"/>
    <rect x="0" y="0" width="300" height="430" rx="8" fill="#2f6f4e"/>
    <text x="36" y="60" class="white title">膳哉</text>
    <text x="36" y="92" class="white body">基于健康档案的智能菜谱推荐</text>
    <rect x="36" y="130" width="210" height="46" rx="8" fill="#fffdf7" opacity="0.16"/>
    <text x="56" y="159" class="white body">1  填写健康档案</text>
    <rect x="36" y="190" width="210" height="46" rx="8" fill="#fffdf7" opacity="0.16"/>
    <text x="56" y="219" class="white body">2  输入已有食材</text>
    <rect x="36" y="250" width="210" height="46" rx="8" fill="#fffdf7" opacity="0.16"/>
    <text x="56" y="279" class="white body">3  获得推荐和清单</text>
    <circle cx="54" cy="358" r="12" fill="#eadfca"/>
    <circle cx="92" cy="346" r="12" fill="#d85b3a"/>
    <circle cx="132" cy="366" r="12" fill="#dbe8d4"/>
    <rect x="340" y="46" width="300" height="338" rx="8" fill="#fffdf7"/>
    <text x="340" y="82" class="ink h2">登录膳哉</text>
    <text x="340" y="108" class="sub body">根据角色进入用户端或维护端</text>
    <text x="340" y="152" class="text small">账号</text>
    <rect x="340" y="164" width="280" height="42" rx="8" class="panel"/>
    <text x="356" y="190" class="sub body">user1</text>
    <text x="340" y="232" class="text small">密码</text>
    <rect x="340" y="244" width="280" height="42" rx="8" class="panel"/>
    <text x="356" y="270" class="sub body">••••••</text>
    <rect x="340" y="306" width="280" height="46" rx="8" class="green"/>
    <text x="443" y="335" class="white body">登录</text>
    <text x="340" y="376" class="sub small">演示账号：user1 / maintainer，密码均为 123456</text>
    <text x="24" y="404" class="white small">01 登录/注册页</text>
  </g>

  <!-- 02 User home -->
  <g transform="translate(820,150)">
    <rect class="board shadow" width="700" height="430"/>
    <rect x="0" y="0" width="700" height="58" rx="8" fill="#fffdf7"/>
    <text x="24" y="36" class="ink h3">膳哉</text>
    <text x="118" y="36" class="text small">首页</text>
    <text x="172" y="36" class="sub small">健康档案</text>
    <text x="250" y="36" class="sub small">智能推荐</text>
    <text x="328" y="36" class="sub small">购物清单</text>
    <text x="610" y="36" class="sub small">小膳</text>
    <line x1="0" y1="58" x2="700" y2="58" class="line"/>
    <text x="30" y="105" class="ink h2">今天想吃得更合适一点</text>
    <text x="30" y="130" class="sub body">当前目标：减脂控热量 · BMI 20.20 正常</text>
    <rect x="30" y="158" width="190" height="92" rx="8" class="green-soft"/>
    <text x="52" y="190" class="text small">每日目标热量</text>
    <text x="52" y="226" class="ink num">1600</text>
    <text x="130" y="226" class="sub small">kcal</text>
    <rect x="240" y="158" width="190" height="92" rx="8" fill="#f4ddce"/>
    <text x="262" y="190" class="text small">偏好标签</text>
    <rect x="262" y="206" width="54" height="24" rx="8" class="chip-warm"/>
    <text x="276" y="223" class="text tiny">清淡</text>
    <rect x="326" y="206" width="54" height="24" rx="8" class="chip-warm"/>
    <text x="340" y="223" class="text tiny">低脂</text>
    <rect x="450" y="158" width="190" height="92" rx="8" fill="#d9e8ed"/>
    <text x="472" y="190" class="text small">最近推荐</text>
    <text x="472" y="226" class="ink num">3</text>
    <text x="512" y="226" class="sub small">次</text>
    <rect x="30" y="278" width="136" height="48" rx="8" class="green"/>
    <text x="62" y="308" class="white body">开始推荐</text>
    <rect x="182" y="278" width="136" height="48" rx="8" class="panel"/>
    <text x="214" y="308" class="text body">完善档案</text>
    <rect x="334" y="278" width="136" height="48" rx="8" class="panel"/>
    <text x="366" y="308" class="text body">购物清单</text>
    <rect x="486" y="278" width="136" height="48" rx="8" class="panel"/>
    <text x="526" y="308" class="text body">收藏</text>
    <rect x="30" y="352" width="190" height="48" rx="8" class="muted"/>
    <text x="50" y="382" class="text small">鸡胸肉西兰花轻食碗</text>
    <rect x="240" y="352" width="190" height="48" rx="8" class="muted"/>
    <text x="260" y="382" class="text small">番茄鸡蛋燕麦粥</text>
    <text x="24" y="404" class="sub small">02 用户首页</text>
  </g>

  <!-- 03 Profile -->
  <g transform="translate(80,620)">
    <rect class="board shadow" width="700" height="430"/>
    <text x="30" y="54" class="ink h2">健康档案</text>
    <text x="30" y="82" class="sub body">系统用档案计算 BMI、目标热量和推荐偏好</text>
    <rect x="30" y="116" width="300" height="52" rx="8" class="panel"/>
    <text x="48" y="138" class="sub small">身高 cm</text>
    <text x="48" y="158" class="ink body">165</text>
    <rect x="350" y="116" width="300" height="52" rx="8" class="panel"/>
    <text x="368" y="138" class="sub small">体重 kg</text>
    <text x="368" y="158" class="ink body">55</text>
    <rect x="30" y="184" width="190" height="64" rx="8" class="green-soft"/>
    <text x="50" y="210" class="sub small">BMI</text>
    <text x="50" y="238" class="ink num">20.20</text>
    <rect x="238" y="184" width="412" height="64" rx="8" class="panel"/>
    <text x="258" y="210" class="sub small">饮食目标</text>
    <rect x="258" y="222" width="92" height="24" rx="8" class="green"/>
    <text x="276" y="239" class="white tiny">减脂控热量</text>
    <rect x="360" y="222" width="82" height="24" rx="8" class="chip"/>
    <text x="382" y="239" class="text tiny">日常健康</text>
    <rect x="452" y="222" width="82" height="24" rx="8" class="chip"/>
    <text x="474" y="239" class="text tiny">健身增肌</text>
    <text x="30" y="288" class="text small">口味偏好</text>
    <rect x="30" y="302" width="72" height="28" rx="8" class="chip"/>
    <text x="52" y="321" class="text tiny">清淡</text>
    <rect x="112" y="302" width="72" height="28" rx="8" class="chip"/>
    <text x="134" y="321" class="text tiny">低脂</text>
    <rect x="194" y="302" width="86" height="28" rx="8" class="chip"/>
    <text x="216" y="321" class="text tiny">高蛋白</text>
    <text x="350" y="288" class="text small">忌口 / 过敏</text>
    <rect x="350" y="302" width="72" height="28" rx="8" class="chip-warm"/>
    <text x="372" y="321" class="text tiny">辣椒</text>
    <rect x="30" y="356" width="620" height="44" rx="8" class="green"/>
    <text x="305" y="384" class="white body">保存档案</text>
    <text x="24" y="404" class="sub small">03 健康档案页</text>
  </g>

  <!-- 04 Recommend input -->
  <g transform="translate(820,620)">
    <rect class="board shadow" width="700" height="430"/>
    <text x="30" y="54" class="ink h2">智能推荐</text>
    <text x="30" y="82" class="sub body">输入手里已有食材，系统匹配适合菜谱</text>
    <rect x="30" y="112" width="420" height="72" rx="8" class="panel"/>
    <text x="50" y="138" class="sub small">已有食材</text>
    <rect x="50" y="150" width="74" height="26" rx="8" class="chip"/>
    <text x="66" y="168" class="text tiny">鸡胸肉</text>
    <rect x="134" y="150" width="74" height="26" rx="8" class="chip"/>
    <text x="150" y="168" class="text tiny">西兰花</text>
    <rect x="218" y="150" width="60" height="26" rx="8" class="chip"/>
    <text x="238" y="168" class="text tiny">鸡蛋</text>
    <rect x="470" y="112" width="180" height="72" rx="8" class="green-soft"/>
    <text x="490" y="138" class="sub small">目标</text>
    <text x="490" y="166" class="ink body">减脂控热量</text>
    <rect x="30" y="208" width="300" height="58" rx="8" class="panel"/>
    <text x="50" y="232" class="sub small">排除食材</text>
    <rect x="50" y="242" width="60" height="20" rx="8" class="chip-warm"/>
    <text x="67" y="256" class="text tiny">辣椒</text>
    <rect x="350" y="208" width="140" height="58" rx="8" class="panel"/>
    <text x="370" y="232" class="sub small">烹饪时间</text>
    <text x="370" y="256" class="ink body">25 分钟</text>
    <rect x="510" y="208" width="140" height="58" rx="8" class="panel"/>
    <text x="530" y="232" class="sub small">人数</text>
    <text x="530" y="256" class="ink body">1 人</text>
    <text x="30" y="304" class="sub small">常用食材快捷选项</text>
    <rect x="30" y="318" width="74" height="26" rx="8" class="chip-blue"/>
    <text x="46" y="336" class="text tiny">番茄</text>
    <rect x="114" y="318" width="74" height="26" rx="8" class="chip-blue"/>
    <text x="130" y="336" class="text tiny">牛肉</text>
    <rect x="198" y="318" width="74" height="26" rx="8" class="chip-blue"/>
    <text x="214" y="336" class="text tiny">藜麦</text>
    <rect x="30" y="366" width="620" height="42" rx="8" class="green"/>
    <text x="286" y="392" class="white body">生成推荐</text>
    <text x="24" y="404" class="sub small">04 智能推荐输入页</text>
  </g>

  <!-- 05 Recommendation result -->
  <g transform="translate(80,1090)">
    <rect class="board shadow" width="700" height="430"/>
    <text x="30" y="54" class="ink h2">推荐结果</text>
    <rect x="30" y="78" width="620" height="66" rx="8" fill="#d9e8ed"/>
    <text x="50" y="106" class="ink h3">AI 健康提示</text>
    <text x="50" y="128" class="text small">优先选择高蛋白、低脂菜谱，现有食材命中度较高。</text>
    <g transform="translate(30,170)">
      <rect width="188" height="190" rx="8" class="panel"/>
      <rect x="0" y="0" width="188" height="72" rx="8" fill="#dbe8d4"/>
      <text x="16" y="98" class="ink h3">鸡胸肉西兰花轻食碗</text>
      <text x="16" y="124" class="sub small">评分 92 · 360 kcal</text>
      <rect x="16" y="140" width="70" height="22" rx="8" class="chip"/>
      <text x="28" y="155" class="text tiny">高蛋白</text>
      <rect x="98" y="140" width="52" height="22" rx="8" class="chip-warm"/>
      <text x="110" y="155" class="text tiny">低脂</text>
      <rect x="16" y="168" width="70" height="18" rx="8" class="green"/>
      <text x="30" y="181" class="white tiny">详情</text>
    </g>
    <g transform="translate(256,170)">
      <rect width="188" height="190" rx="8" class="panel"/>
      <rect x="0" y="0" width="188" height="72" rx="8" fill="#f4ddce"/>
      <text x="16" y="98" class="ink h3">番茄鸡蛋燕麦粥</text>
      <text x="16" y="124" class="sub small">评分 86 · 310 kcal</text>
      <rect x="16" y="140" width="70" height="22" rx="8" class="chip"/>
      <text x="28" y="155" class="text tiny">快手</text>
      <rect x="98" y="140" width="52" height="22" rx="8" class="chip-blue"/>
      <text x="110" y="155" class="text tiny">清淡</text>
      <rect x="16" y="168" width="70" height="18" rx="8" class="green"/>
      <text x="30" y="181" class="white tiny">详情</text>
    </g>
    <g transform="translate(482,170)">
      <rect width="168" height="190" rx="8" class="panel"/>
      <rect x="0" y="0" width="168" height="72" rx="8" fill="#eadfca"/>
      <text x="16" y="98" class="ink h3">虾仁豆腐汤</text>
      <text x="16" y="124" class="sub small">评分 82 · 280 kcal</text>
      <rect x="16" y="140" width="70" height="22" rx="8" class="chip"/>
      <text x="28" y="155" class="text tiny">低脂</text>
      <rect x="16" y="168" width="70" height="18" rx="8" class="green"/>
      <text x="30" y="181" class="white tiny">详情</text>
    </g>
    <text x="24" y="404" class="sub small">05 推荐结果页</text>
  </g>

  <!-- 06 Detail + shopping -->
  <g transform="translate(820,1090)">
    <rect class="board shadow" width="700" height="430"/>
    <rect x="30" y="38" width="260" height="170" rx="8" fill="#dbe8d4"/>
    <text x="320" y="64" class="ink h2">鸡胸肉西兰花轻食碗</text>
    <text x="320" y="92" class="sub body">25 分钟 · 1 人份 · 减脂控热量</text>
    <rect x="320" y="116" width="78" height="28" rx="8" class="chip"/>
    <text x="338" y="135" class="text tiny">360 kcal</text>
    <rect x="408" y="116" width="78" height="28" rx="8" class="chip"/>
    <text x="426" y="135" class="text tiny">蛋白 32g</text>
    <rect x="496" y="116" width="78" height="28" rx="8" class="chip-warm"/>
    <text x="516" y="135" class="text tiny">低脂</text>
    <rect x="320" y="164" width="126" height="42" rx="8" class="green"/>
    <text x="346" y="190" class="white small">生成购物清单</text>
    <rect x="458" y="164" width="92" height="42" rx="8" class="panel"/>
    <text x="486" y="190" class="text small">收藏</text>
    <text x="30" y="248" class="ink h3">做法步骤</text>
    <text x="30" y="276" class="text small">1. 鸡胸肉切块，用少量黑胡椒腌制。</text>
    <text x="30" y="302" class="text small">2. 西兰花焯水，和鸡胸肉一起煎熟。</text>
    <text x="30" y="328" class="text small">3. 搭配糙米饭，按口味加入柠檬汁。</text>
    <rect x="450" y="238" width="200" height="140" rx="8" class="panel"/>
    <text x="470" y="266" class="ink h3">购物清单</text>
    <text x="470" y="294" class="sub small">已排除：鸡胸肉</text>
    <rect x="470" y="312" width="14" height="14" rx="3" fill="#fffdf7" stroke="#2f6f4e"/>
    <text x="494" y="324" class="text small">西兰花 150g</text>
    <rect x="470" y="340" width="14" height="14" rx="3" fill="#fffdf7" stroke="#2f6f4e"/>
    <text x="494" y="352" class="text small">糙米 80g</text>
    <text x="24" y="404" class="sub small">06 菜谱详情 + 购物清单</text>
  </g>

  <!-- 07 Admin dashboard and data table -->
  <g transform="translate(80,1560)">
    <rect class="board shadow" width="1440" height="720"/>
    <rect x="0" y="0" width="220" height="720" rx="8" fill="#1f2a24"/>
    <text x="30" y="54" class="white h2">膳哉维护端</text>
    <rect x="24" y="92" width="172" height="38" rx="8" fill="#376c8a"/>
    <text x="52" y="116" class="white small">统计看板</text>
    <text x="52" y="164" class="white small">菜谱管理</text>
    <text x="52" y="210" class="white small">食材管理</text>
    <text x="252" y="58" class="ink h2">统计看板</text>
    <text x="252" y="86" class="sub body">查看菜谱库、食材库和推荐使用情况</text>
    <g transform="translate(252,120)">
      <rect width="250" height="104" rx="8" class="panel"/>
      <text x="24" y="36" class="sub small">用户数量</text>
      <text x="24" y="76" class="ink num">128</text>
    </g>
    <g transform="translate(526,120)">
      <rect width="250" height="104" rx="8" class="panel"/>
      <text x="24" y="36" class="sub small">菜谱数量</text>
      <text x="24" y="76" class="ink num">18</text>
    </g>
    <g transform="translate(800,120)">
      <rect width="250" height="104" rx="8" class="panel"/>
      <text x="24" y="36" class="sub small">食材数量</text>
      <text x="24" y="76" class="ink num">36</text>
    </g>
    <g transform="translate(1074,120)">
      <rect width="250" height="104" rx="8" class="panel"/>
      <text x="24" y="36" class="sub small">推荐次数</text>
      <text x="24" y="76" class="ink num">412</text>
    </g>
    <rect x="252" y="256" width="520" height="190" rx="8" class="panel"/>
    <text x="280" y="292" class="ink h3">热门菜谱</text>
    <rect x="280" y="318" width="350" height="18" rx="8" class="green"/>
    <text x="646" y="332" class="sub tiny">鸡胸肉西兰花轻食碗</text>
    <rect x="280" y="356" width="290" height="18" rx="8" class="tomato"/>
    <text x="586" y="370" class="sub tiny">番茄鸡蛋</text>
    <rect x="280" y="394" width="230" height="18" rx="8" class="blue"/>
    <text x="526" y="408" class="sub tiny">虾仁豆腐汤</text>
    <rect x="804" y="256" width="520" height="190" rx="8" class="panel"/>
    <text x="832" y="292" class="ink h3">饮食目标分布</text>
    <circle cx="900" cy="364" r="54" fill="#2f6f4e"/>
    <path d="M900 310 A54 54 0 0 1 954 364 L900 364 Z" fill="#d85b3a"/>
    <path d="M900 364 L954 364 A54 54 0 0 1 892 418 Z" fill="#376c8a"/>
    <rect x="1000" y="330" width="12" height="12" class="green"/>
    <text x="1022" y="341" class="text small">减脂控热量 48%</text>
    <rect x="1000" y="362" width="12" height="12" class="tomato"/>
    <text x="1022" y="373" class="text small">日常健康 31%</text>
    <rect x="1000" y="394" width="12" height="12" class="blue"/>
    <text x="1022" y="405" class="text small">健身增肌 21%</text>
    <text x="252" y="500" class="ink h2">菜谱管理</text>
    <rect x="252" y="526" width="1072" height="48" rx="8" class="panel"/>
    <text x="280" y="556" class="sub small">搜索菜名、标签或目标</text>
    <rect x="1168" y="532" width="130" height="36" rx="8" class="green"/>
    <text x="1200" y="555" class="white small">新增菜谱</text>
    <rect x="252" y="596" width="1072" height="84" rx="8" class="panel"/>
    <text x="280" y="624" class="sub small">菜名</text>
    <text x="500" y="624" class="sub small">目标</text>
    <text x="640" y="624" class="sub small">热量</text>
    <text x="780" y="624" class="sub small">状态</text>
    <text x="1010" y="624" class="sub small">操作</text>
    <line x1="252" y1="640" x2="1324" y2="640" class="line"/>
    <text x="280" y="664" class="text small">鸡胸肉西兰花轻食碗</text>
    <text x="500" y="664" class="text small">减脂</text>
    <text x="640" y="664" class="text small">360 kcal</text>
    <text x="780" y="664" class="text small">启用</text>
    <text x="1010" y="664" class="blue small">编辑</text>
    <text x="1060" y="664" class="tomato small">下架</text>
    <text x="252" y="704" class="sub small">07 维护端看板 + 菜谱管理</text>
  </g>

  <!-- Implementation notes strip -->
  <g transform="translate(80,2340)">
    <rect class="board shadow" width="1440" height="760"/>
    <text x="40" y="62" class="ink h2">前端实现标注</text>
    <text x="40" y="96" class="sub body">组件、状态和接口的落地规则，供开发时核对。</text>
    <rect x="40" y="132" width="420" height="240" rx="8" class="panel"/>
    <text x="70" y="172" class="ink h3">组件层</text>
    <text x="70" y="208" class="text body">UserLayout / AdminLayout</text>
    <text x="70" y="238" class="text body">RecipeCard / NutritionBar</text>
    <text x="70" y="268" class="text body">IngredientTagInput / GoalSegment</text>
    <text x="70" y="298" class="text body">RecipeEditorDrawer / IngredientEditorDrawer</text>
    <rect x="510" y="132" width="420" height="240" rx="8" class="panel"/>
    <text x="540" y="172" class="ink h3">状态层</text>
    <text x="540" y="208" class="text body">auth store：token、user、role</text>
    <text x="540" y="238" class="text body">recommend store：输入快照、结果缓存</text>
    <text x="540" y="268" class="text body">统一处理 loading / empty / error</text>
    <text x="540" y="298" class="text body">401 清登录态，403 显示无权限</text>
    <rect x="980" y="132" width="420" height="240" rx="8" class="panel"/>
    <text x="1010" y="172" class="ink h3">接口层</text>
    <text x="1010" y="208" class="text body">/api/auth/* 登录和当前用户</text>
    <text x="1010" y="238" class="text body">/api/profile/* 首页和档案</text>
    <text x="1010" y="268" class="text body">/api/recommendations 推荐闭环</text>
    <text x="1010" y="298" class="text body">/api/admin/* 维护端数据</text>
    <text x="40" y="430" class="ink h2">优先开发路径</text>
    <path d="M60 500 H1320" stroke="#ded6c7" stroke-width="5" stroke-linecap="round"/>
    <circle cx="90" cy="500" r="22" class="green"/>
    <text x="82" y="506" class="white small">1</text>
    <text x="50" y="546" class="text small">登录</text>
    <circle cx="280" cy="500" r="22" class="green"/>
    <text x="272" y="506" class="white small">2</text>
    <text x="238" y="546" class="text small">用户首页</text>
    <circle cx="470" cy="500" r="22" class="green"/>
    <text x="462" y="506" class="white small">3</text>
    <text x="428" y="546" class="text small">健康档案</text>
    <circle cx="660" cy="500" r="22" class="green"/>
    <text x="652" y="506" class="white small">4</text>
    <text x="618" y="546" class="text small">智能推荐</text>
    <circle cx="850" cy="500" r="22" class="tomato"/>
    <text x="842" y="506" class="white small">5</text>
    <text x="802" y="546" class="text small">结果详情</text>
    <circle cx="1040" cy="500" r="22" class="tomato"/>
    <text x="1032" y="506" class="white small">6</text>
    <text x="994" y="546" class="text small">购物清单</text>
    <circle cx="1230" cy="500" r="22" class="blue"/>
    <text x="1222" y="506" class="white small">7</text>
    <text x="1184" y="546" class="text small">维护端</text>
    <rect x="40" y="610" width="1360" height="88" rx="8" fill="#dbe8d4"/>
    <text x="70" y="646" class="ink h3">验收标准</text>
    <text x="70" y="676" class="text body">375px 手机宽度不溢出；每个页面都有 loading、empty、error；菜谱卡有图片、热量、蛋白质和操作按钮；维护端有搜索、筛选和编辑入口。</text>
  </g>
</svg>
