<svg width="1200" height="800" viewBox="0 0 1200 800" fill="none" xmlns="http://www.w3.org/2000/svg">
  <rect width="1200" height="800" rx="40" fill="#F5F1E8"/>
  <rect x="40" y="40" width="1120" height="720" rx="36" fill="url(#bg)"/>
  <circle cx="600" cy="400" r="220" fill="#FCFCF7"/>
  <circle cx="600" cy="400" r="176" fill="#E8F1E6"/>
  <circle cx="522" cy="372" r="50" fill="#F1B55E"/>
  <circle cx="610" cy="322" r="56" fill="#7EBE74"/>
  <circle cx="684" cy="404" r="54" fill="#E36D54"/>
  <circle cx="560" cy="472" r="46" fill="#BBD67A"/>
  <circle cx="675" cy="500" r="42" fill="#F5D47C"/>
  <path d="M378 242C325 275 282 325 256 384C229 442 220 507 230 569" stroke="#D1E4D3" stroke-width="18" stroke-linecap="round"/>
  <path d="M832 229C895 270 943 332 965 408C984 473 980 540 955 599" stroke="#E3EED7" stroke-width="18" stroke-linecap="round"/>
  <path d="M512 230C551 181 625 162 679 188C736 216 762 286 742 344" stroke="#236B4B" stroke-width="18" stroke-linecap="round"/>
  <path d="M540 230C565 252 586 283 598 322" stroke="#236B4B" stroke-width="12" stroke-linecap="round"/>
  <path d="M673 209C654 241 648 285 656 326" stroke="#236B4B" stroke-width="12" stroke-linecap="round"/>
  <defs>
    <linearGradient id="bg" x1="76" y1="64" x2="1099" y2="751" gradientUnits="userSpaceOnUse">
      <stop stop-color="#E3F0E4"/>
      <stop offset="0.48" stop-color="#F5F8EC"/>
      <stop offset="1" stop-color="#FFF4DF"/>
    </linearGradient>
  </defs>
</svg>
